<svg xmlns="http://www.w3.org/2000/svg" width="61" height="26" fill="none" xmlns:v="https://vecta.io/nano"><path d="M20.594 4.051c.574-.066.885.244.836.851L20.054 23.47c-.028.492-.332.786-.821.838l-3.855.456c-.493.059-.821-.162-.983-.633l-2.264-6.797c-.086-.273-.304-.25-.326.042l-.744 7.147c-.057.499-.33.788-.823.847l-3.853.45c-.494.059-.849-.159-.983-.63L.056 7.411c-.174-.584.064-.957.637-1.024l3.252-.381c.495-.058.877.154.984.629l2.846 11.642c.087.278.303.252.33-.04l.541-12.037c.03-.489.333-.786.821-.841l2.353-.275c.492-.059.847.157.982.631l3.12 11.607c.087.279.303.254.33-.038l.267-12.007c.004-.489.328-.784.823-.842l3.253-.384zm9.966-1.684c6.477-.76 6.469 4.321 6.322 6.235l-.557 7.241c-.145 1.914-.921 7.086-7.398 7.85s-6.47-4.326-6.324-6.237l.56-7.246c.143-1.912.919-7.088 7.396-7.843zM53.218.224c.492-.058.849.159.981.631l5.345 17.78c.178.581-.059.952-.635 1.022l-3.252.381c-.491.055-.877-.155-.983-.631L51.825 7.765c-.084-.276-.303-.249-.326.04l-.542 12.037c-.027.491-.33.788-.822.843l-2.35.274c-.492.061-.847-.158-.98-.63L43.684 8.723c-.086-.276-.305-.25-.331.039l-.267 12.007c-.003.484-.331.783-.822.841l-3.252.382c-.576.068-.885-.242-.84-.849l1.377-18.568c.03-.492.332-.785.823-.845l3.855-.45c.491-.059.819.162.982.629l2.265 6.802c.084.274.304.248.326-.041l.742-7.148c.058-.495.329-.786.824-.844l3.852-.453zM32.064 10.689c.17-2.231.139-3.576-1.885-3.339s-2.266 1.614-2.437 3.847l-.318 4.169c-.173 2.234-.138 3.579 1.883 3.341 2.026-.237 2.27-1.615 2.436-3.844l.322-4.174z" fill="#4d008c"/></svg>